<svg width="41" height="11" viewBox="0 0 41 11" fill="none" xmlns="http://www.w3.org/2000/svg">
<path d="M10.4479 5.29557V0.31957H14.4479V5.77557C14.4479 6.38357 14.3092 6.9809 14.0319 7.56757C13.7652 8.14357 13.3386 8.67157 12.7519 9.15157C12.1759 9.63157 11.4292 10.0156 10.5119 10.3036C9.60524 10.5809 8.51724 10.7196 7.24791 10.7196C6.36257 10.7196 5.48791 10.6396 4.62391 10.4796C3.77057 10.3089 2.99724 10.0369 2.30391 9.66357C1.61057 9.29024 1.05591 8.79424 0.639906 8.17557C0.223906 7.54624 0.0105729 6.7729 -9.37283e-05 5.85557H3.83991C3.98924 6.5169 4.33057 6.98624 4.86391 7.26357C5.40791 7.5409 6.20257 7.67957 7.24791 7.67957C8.13324 7.67957 8.80524 7.57824 9.26391 7.37557C9.72257 7.1729 10.0319 6.89024 10.1919 6.52757C10.3626 6.1649 10.4479 5.75424 10.4479 5.29557ZM35.3264 6.28757C35.2731 7.3009 34.9051 8.1489 34.2224 8.83157C33.5397 9.51424 32.5317 10.0262 31.1984 10.3676C29.8757 10.7089 28.2011 10.8796 26.1744 10.8796C24.6277 10.8796 23.2411 10.7942 22.0144 10.6236C20.7877 10.4636 19.7424 10.1862 18.8784 9.79157C18.0144 9.38624 17.3531 8.8369 16.8944 8.14357C16.4357 7.45024 16.2064 6.57557 16.2064 5.51957C16.2064 4.46357 16.4357 3.58357 16.8944 2.87957C17.3531 2.1649 18.0144 1.59957 18.8784 1.18357C19.7424 0.756903 20.7877 0.452903 22.0144 0.27157C23.2411 0.0902367 24.6277 -0.000430107 26.1744 -0.000430107C28.2011 -0.000430107 29.8811 0.186237 31.2144 0.55957C32.5477 0.922237 33.5557 1.4609 34.2384 2.17557C34.9211 2.89024 35.2891 3.75957 35.3424 4.78357H31.1824C31.0544 4.44224 30.8197 4.14357 30.4784 3.88757C30.1371 3.6209 29.6251 3.4129 28.9424 3.26357C28.2597 3.11424 27.3371 3.03957 26.1744 3.03957C24.8091 3.03957 23.6997 3.1249 22.8464 3.29557C21.9931 3.45557 21.3691 3.7169 20.9744 4.07957C20.5797 4.44224 20.3824 4.92224 20.3824 5.51957C20.3824 6.06357 20.5797 6.50624 20.9744 6.84757C21.3691 7.1889 21.9931 7.43957 22.8464 7.59957C23.6997 7.75957 24.8091 7.83957 26.1744 7.83957C27.3371 7.83957 28.2544 7.77024 28.9264 7.63157C29.6091 7.4929 30.1211 7.30624 30.4624 7.07157C30.8037 6.82624 31.0384 6.5649 31.1664 6.28757H35.3264Z" fill="#0F0E0C"/>
<path d="M40.2123 8.14357V10.5596H36.1483V8.14357H40.2123Z" fill="#D63B2F"/>
</svg>
